# xmcd CD database file
#
# Track frame offsets:
#	150
#	63484
#	88755
#	127498
#	158480
#	193681
#	231669
#
# Disc length: 3219 seconds
#
# Revision: 3
# Processed by: cddbd v1.5.1PL0 Copyright (c) Steve Scherf et al.
# Submitted via: CDex 1.50
#
DISCID=650c9107
DTITLE=Los lonely boys - 01-09-04: Horseman night club FT Worh Tx [CD 2)
DYEAR=1900
DGENRE=Blues
TTITLE0=Cottonfields and crossroads
TTITLE1=Real emotions
TTITLE2=Señorita
TTITLE3=Heaven
TTITLE4=End of a new beginning
TTITLE5=Voodoo child (Slight return)
TTITLE6=End of a new beginning (reprise)
EXTD=
EXTT0=
EXTT1=
EXTT2=
EXTT3=
EXTT4=
EXTT5=
EXTT6=
PLAYORDER=
